<svg id="图层_1" data-name="图层 1" xmlns="http://www.w3.org/2000/svg" viewBox="0 0 583.3617 543.5824"><defs><style>.cls-1,.cls-2{fill:#f97800;}.cls-2{stroke:#f97800;stroke-miterlimit:10;stroke-width:8px;}</style></defs><title>app</title><path class="cls-1" d="M458.8175,82.1631a239.197,239.197,0,0,1,124.2485,34.64,13.8928,13.8928,0,0,1,5.6786,16.9224L562.85,198.3479a13.7987,13.7987,0,0,1-20.7838,6.1329c-34.0718-24.191-78.8194-33.6175-126.2928-20.3295a136.8227,136.8227,0,0,0-93.6974,90.8581c-31.0053,100.5118,41.5676,191.0292,136.855,191.0292a142.4794,142.4794,0,0,0,73.8222-20.2159c7.2687-4.3157,16.8088-1.2493,19.8752,6.4737L578.41,516.5785a13.818,13.818,0,0,1-6.2465,17.2631A240.0839,240.0839,0,0,1,459.0447,561.894c-132.4257.1135-239.979-107.3262-239.979-239.8655S326.3918,82.1631,458.8175,82.1631" transform="translate(-6.3191 -18.3117)"/><path class="cls-1" d="M122.9075,110.8229c-19.4086,0-34.0858,20.4708-23.947,40.5553a22.8632,22.8632,0,0,0,9.56,10.0423c20.4708,11.201,41.5209-3.7659,41.5209-23.3676A27.24,27.24,0,0,0,122.9075,110.8229Z" transform="translate(-6.3191 -18.3117)"/><path id="准心" class="cls-2" d="M56.2025,126.4578c4.77-29.0746,27.2574-52.2434,55.4234-56.9v22.26h22.4874V69.4444c28.1661,4.8836,50.6534,28.0524,55.4235,56.9H167.958v23.2824h21.5788c-4.77,29.0746-27.2574,52.2434-55.4235,56.9v-22.26H111.6259V206.64c-28.166-4.8836-50.6534-28.0524-55.4234-56.9H77.7813V126.5714H56.2025M33.488,149.6266c4.9972,42.0219,37.3654,75.4123,78.2515,80.41V254h22.4874V230.15c40.659-5.1108,73.2544-38.5012,78.2516-80.41h23.1688V126.5714H212.4785C207.4813,84.55,175.1131,51.1592,134.2269,46.162v-23.85H111.74v23.85c-40.659,5.1107-73.2543,38.5011-78.2515,80.4094H10.3191V149.74H33.488M122.87,161.3246c-13.1745,0-23.9639-11.9251-22.3739-25.8945a22.7093,22.7093,0,0,1,19.7617-20.33c13.5151-1.59,25.1,9.4265,25.1,23.0552.1136,12.72-10.1079,23.1688-22.4873,23.1688Z" transform="translate(-6.3191 -18.3117)"/></svg>