<?xml version="1.0" standalone="no"?><!DOCTYPE svg PUBLIC "-//W3C//DTD SVG 1.1//EN" "http://www.w3.org/Graphics/SVG/1.1/DTD/svg11.dtd"><svg t="1670557022828" class="icon" viewBox="0 0 1024 1024" version="1.1" xmlns="http://www.w3.org/2000/svg" p-id="4857" xmlns:xlink="http://www.w3.org/1999/xlink" width="600" height="600"><path d="M453.184 121.28c183.04 0.64 330.88 149.12 330.24 331.52-0.64 183.04-149.12 330.88-331.52 330.24-183.04-0.64-330.88-149.12-330.24-331.52 0-133.12 80-252.8 202.24-304.64 40.96-17.28 85.12-26.24 129.28-25.6m0-78.72a410.88 410.88 0 1 0 0.128 821.888A410.88 410.88 0 0 0 453.12 42.56z m301.44 656.64l-55.04 55.04 226.56 226.56 55.04-55.04-226.56-226.56z" fill="#323333" p-id="4858"></path><path d="M625.344 284.48l-226.56 226.56-117.76-117.76-55.04 55.04 117.76 117.76 55.04 55.04 55.04-55.04 226.56-226.56-55.04-55.04z" fill="#323333" p-id="4859"></path></svg>