<?xml version="1.0" encoding="utf-8"?>
<!-- Generator: Adobe Illustrator 23.0.3, SVG Export Plug-In . SVG Version: 6.00 Build 0)  -->
<svg version="1.1" id="图层_1" xmlns="http://www.w3.org/2000/svg" xmlns:xlink="http://www.w3.org/1999/xlink" x="0px" y="0px"
	 viewBox="0 0 600 600" style="enable-background:new 0 0 600 600;" xml:space="preserve">
<style type="text/css">
	.st0{fill:#FFFFFF;}
	.st1{fill:#176FD9;}
	.st2{fill:#0D1AD9;}
</style>
<title>画板 1</title>
<path d="M299.6,583.4H293L86.3,466.7c-6.7-3.3-10-6.7-10-13.3v-210c-0.6-7.1,3.4-13.8,10-16.7l100-53.3c6.7-6.7,16.7-3.3,20,6.7
	s3.3,16.7-6.7,23.3l-90,50v190l190,103.3L493,443.4v-190l-93.3-50c-6.4-5.9-9-14.9-6.7-23.3c3.3-10,13.3-13.3,20-6.7l100,53.3
	c6.6,2.8,10.6,9.5,10,16.7v210c0,6.7-3.3,10-10,13.3L306.3,580.1C306.3,583.4,303,583.4,299.6,583.4z"/>
<path d="M303.3,376.7c-3.3,0-6.7,0-6.7-3.3L103.3,270c-7.3-0.8-12.6-7.4-11.8-14.7c0.2-1.9,0.8-3.6,1.8-5.3
	c6.7-10,13.3-13.3,23.3-6.7L303.3,340l183.3-96.7c6.7-6.7,16.7-3.3,20,6.7c2.8,7.4,0,15.8-6.7,20L310,373.3L303.3,376.7z"/>
<path d="M300,573.3c-9.2,0-16.7-7.5-16.7-16.7l0,0l0,0V360c0-9.2,7.5-16.7,16.7-16.7s16.7,7.5,16.7,16.7v196.7
	C316.7,565.9,309.2,573.3,300,573.3L300,573.3z"/>
<path class="st0" d="M403.8,182.4c21.1-57.3-8.2-121-65.6-142.1s-121,8.2-142.1,65.6c-17.4,47.2-0.7,100.2,40.5,129
	c0.8,0.6,1.9,0.5,2.6-0.2l11.2-11.2c0.8-0.8,0.8-2.1,0-2.9c-0.1-0.1-0.2-0.2-0.3-0.3c-42-27.5-53.8-83.9-26.3-126
	s83.9-53.8,126-26.3s53.8,83.9,26.3,126c-2,3-4.1,5.9-6.5,8.7l-18.2-18c-0.8-0.8-2.1-0.8-2.9,0c-0.3,0.3-0.5,0.8-0.6,1.2l-7.2,56.8
	c-0.1,1.1,0.7,2.2,1.8,2.3c0.2,0,0.4,0,0.5,0l56.7-7.7c1.1-0.2,1.9-1.2,1.8-2.3c-0.1-0.5-0.3-0.9-0.6-1.2l-17.3-17.1
	C392.3,206.5,399.2,194.9,403.8,182.4z"/>
<path class="st0" d="M436.5,197.8c27.8-75.4-10.8-159.1-86.3-186.9s-159,10.9-186.8,86.3c-22.9,62.1-1,131.8,53.3,169.7
	c1.1,0.8,2.5,0.6,3.5-0.3l14.7-14.7c1.1-1.1,1.1-2.8,0-3.8c-0.1-0.1-0.3-0.3-0.4-0.4C179.2,211.5,163.7,137.3,200,82
	s110.4-70.8,165.7-34.5s70.8,110.4,34.5,165.7c-2.6,4-5.5,7.8-8.5,11.5L367.8,201c-1.1-1.1-2.8-1.1-3.8,0c-0.4,0.4-0.7,1-0.8,1.6
	l-9.5,74.7c-0.2,1.5,0.9,2.9,2.3,3c0.2,0,0.5,0,0.7,0l74.6-10.2c1.5-0.2,2.5-1.6,2.3-3.1c-0.1-0.6-0.4-1.1-0.8-1.6L410,242.9
	C421.5,229.6,430.5,214.3,436.5,197.8z"/>
<path class="st1" d="M422.8,192.1c25-67.8-9.7-143-77.6-168s-143,9.7-168,77.6c-20.6,55.8-0.9,118.5,47.9,152.5
	c1,0.7,2.3,0.6,3.1-0.3l13.2-13.2c1-1,1-2.5,0-3.5c-0.1-0.1-0.2-0.2-0.4-0.3c-49.7-32.6-63.6-99.2-31.1-149s99.2-63.6,149-31.1
	s63.6,99.2,31.1,149c-2.3,3.6-4.9,7-7.7,10.3l-21.5-21.3c-0.9-1-2.5-1-3.5,0c-0.4,0.4-0.6,0.9-0.7,1.4l-8.5,67.1
	c-0.2,1.3,0.8,2.6,2.1,2.7c0.2,0,0.4,0,0.6,0l67.2-9c1.3-0.2,2.3-1.4,2.1-2.8c-0.1-0.5-0.3-1-0.7-1.4l-20.5-20.3
	C409.2,220.6,417.3,206.9,422.8,192.1z"/>
<path class="st2" d="M421.8,191.7c24.8-67.3-9.6-141.8-77-166.6S203,34.7,178.2,102c-20.4,55.4-0.9,117.5,47.5,151.3
	c1,0.7,2.3,0.6,3.1-0.3l13.1-13.1c1-1,1-2.5,0-3.5c-0.1-0.1-0.2-0.2-0.4-0.3c-49.3-32.3-63.1-98.4-30.8-147.8S309,25.2,358.4,57.5
	s63.1,98.4,30.8,147.8c-2.3,3.6-4.9,6.9-7.6,10.2l-21.3-21.1c-0.9-1-2.5-1-3.5,0c-0.4,0.4-0.6,0.9-0.7,1.4l-8.4,66.6
	c-0.2,1.3,0.8,2.6,2.1,2.7c0.2,0,0.4,0,0.6,0l66.7-8.9c1.3-0.2,2.3-1.4,2.1-2.8c-0.1-0.5-0.3-1-0.7-1.4l-20.3-20.1
	C408.3,220,416.4,206.4,421.8,191.7z"/>
<path class="st2" d="M358.4,226.7L372,259c0.8,2-0.4,4.2-2.6,4.5l-18.3,2.5c-2.1,0.3-3.9-1.5-3.7-3.7l4.6-34.8
	C352.6,224.2,357.1,223.6,358.4,226.7z"/>
</svg>
