<?xml version="1.0" encoding="utf-8"?>
<!-- Generator: Adobe Illustrator 23.0.3, SVG Export Plug-In . SVG Version: 6.00 Build 0)  -->
<svg version="1.1" id="图层_1" xmlns="http://www.w3.org/2000/svg" xmlns:xlink="http://www.w3.org/1999/xlink" x="0px" y="0px"
	 viewBox="0 0 200 200" style="enable-background:new 0 0 200 200;" xml:space="preserve">
<path d="M100,181c39.8,0,72-32.2,72-72c0-39.8-32.2-72-72-72c-39.8,0-72,32.2-72,72C28,148.8,60.2,181,100,181z M100,193
	c-46.4,0-84-37.6-84-84s37.6-84,84-84s84,37.6,84,84S146.4,193,100,193z M94,61c3.3,0,6,2.7,6,6v42h42c3.3,0,6,2.7,6,6s-2.7,6-6,6
	l0,0H88V67C88,63.7,90.7,61,94,61z"/>
</svg>
