<?xml version="1.0" encoding="utf-8"?>
<!-- Generator: Adobe Illustrator 23.0.3, SVG Export Plug-In . SVG Version: 6.00 Build 0)  -->
<svg version="1.1" id="图层_1" xmlns="http://www.w3.org/2000/svg" xmlns:xlink="http://www.w3.org/1999/xlink" x="0px" y="0px"
	 viewBox="0 0 600 600" style="enable-background:new 0 0 600 600;" xml:space="preserve">
<style type="text/css">
	.st0{fill:#FFFFFF;}
	.st1{fill:#FF0000;}
</style>
<title>画板 1</title>
<path d="M299.6,583.4H293L86.3,466.7c-6.7-3.3-10-6.7-10-13.3v-210c-0.6-7.1,3.4-13.8,10-16.7l100-53.3c6.7-6.7,16.7-3.3,20,6.7
	s3.3,16.7-6.7,23.3l-90,50v190l190,103.3L493,443.4v-190l-93.3-50c-6.4-5.9-9-14.9-6.7-23.3c3.3-10,13.3-13.3,20-6.7l100,53.3
	c6.6,2.8,10.6,9.5,10,16.7v210c0,6.7-3.3,10-10,13.3L306.3,580.1C306.3,583.4,303,583.4,299.6,583.4z"/>
<path d="M303.3,376.7c-3.3,0-6.7,0-6.7-3.3L103.3,270c-7.3-0.8-12.6-7.4-11.8-14.7c0.2-1.9,0.8-3.6,1.8-5.3
	c6.7-10,13.3-13.3,23.3-6.7L303.3,340l183.3-96.7c6.7-6.7,16.7-3.3,20,6.7c2.8,7.4,0,15.8-6.7,20L310,373.3L303.3,376.7z"/>
<path d="M300,573.3c-9.2,0-16.7-7.5-16.7-16.7c0,0,0,0,0,0l0,0V360c0-9.2,7.5-16.7,16.7-16.7c9.2,0,16.7,7.5,16.7,16.7v196.7
	C316.7,565.9,309.2,573.3,300,573.3C300,573.3,300,573.3,300,573.3z"/>
<path class="st0" d="M299.6,6.9c78.9,0,142.8,63.9,142.8,142.8c0,78.9-63.9,142.8-142.8,142.8c-78.9,0-142.8-63.9-142.8-142.8
	c0,0,0,0,0,0C156.8,70.9,220.7,6.9,299.6,6.9C299.6,6.9,299.6,6.9,299.6,6.9 M299.6,30.7c-65.7,0-119,53.2-119,119
	c0,27.5,9.5,54.1,26.9,75.4L374.9,57.6C353.7,40.2,327.1,30.7,299.6,30.7 M299.6,268.7c65.7,0,119-53.2,119-119
	c0-27.5-9.5-54.1-26.9-75.4L224.3,241.8C245.5,259.2,272.2,268.7,299.6,268.7z"/>
<path class="st0" d="M300,41.5c59.8,0,108.2,48.5,108.2,108.2S359.8,257.9,300,257.9s-108.2-48.5-108.2-108.2c0,0,0,0,0,0
	C191.8,90,240.2,41.5,300,41.5C300,41.5,300,41.5,300,41.5 M300,59.5c-49.8,0-90.2,40.4-90.2,90.2c0,20.8,7.2,41,20.4,57.1
	L357.1,79.9C341,66.7,320.8,59.5,300,59.5 M300,239.9c49.8,0,90.2-40.4,90.2-90.2c0-20.8-7.2-41-20.4-57.1L242.9,219.5
	C259,232.7,279.2,239.9,300,239.9z"/>
<path class="st1" d="M300,16.4c71.7,0,129.9,58.1,129.9,129.9S371.7,276.1,300,276.1S170.1,218,170.1,146.3c0,0,0,0,0,0
	C170.1,74.6,228.2,16.4,300,16.4C300,16.4,300,16.4,300,16.4 M300,38c-59.8,0-108.2,48.4-108.2,108.2c0,25,8.6,49.2,24.5,68.5
	L368.5,62.5C349.2,46.7,325,38,300,38 M300,254.5c59.8,0,108.2-48.4,108.2-108.2c0-25-8.6-49.2-24.5-68.5L231.5,230
	C250.8,245.9,275,254.5,300,254.5L300,254.5z"/>
</svg>
