<?xml version="1.0" standalone="no"?><!DOCTYPE svg PUBLIC "-//W3C//DTD SVG 1.1//EN" "http://www.w3.org/Graphics/SVG/1.1/DTD/svg11.dtd"><svg t="1670554879642" class="icon" viewBox="0 0 1024 1024" version="1.1" xmlns="http://www.w3.org/2000/svg" p-id="15265" width="600" height="600" data-spm-anchor-id="a313x.7781069.0.i10" xmlns:xlink="http://www.w3.org/1999/xlink"><path d="M512 1001.244444h-11.377778l-352.711111-199.111111c-11.377778-5.688889-17.066667-11.377778-17.066667-22.755555V420.977778a28.444444 28.444444 0 0 1 17.066667-28.444445l170.666667-91.022222c11.377778-11.377778 28.444444-5.688889 34.133333 11.377778s5.688889 28.444444-11.377778 39.822222L187.733333 438.044444v324.266667l324.266667 176.355556 329.955556-176.355556V438.044444l-159.288889-85.333333a39.822222 39.822222 0 0 1-11.377778-39.822222c5.688889-17.066667 22.755556-22.755556 34.133333-11.377778l170.666667 91.022222a28.444444 28.444444 0 0 1 17.066667 28.444445v358.4c0 11.377778-5.688889 17.066667-17.066667 22.755555l-352.711111 193.422223c0 5.688889-5.688889 5.688889-11.377778 5.688888z" fill="#000000" p-id="15266" data-spm-anchor-id="a313x.7781069.0.i6" class="selected"></path><path d="M517.688889 642.844444c-5.688889 0-11.377778 0-11.377778-5.688888L176.355556 460.8a22.755556 22.755556 0 0 1-17.066667-34.133333c11.377778-17.066667 22.755556-22.755556 39.822222-11.377778l318.577778 164.977778 312.888889-164.977778c11.377778-11.377778 28.444444-5.688889 34.133333 11.377778a28.444444 28.444444 0 0 1-11.377778 34.133333l-324.266666 176.355556z" fill="#000000" p-id="15267"></path><path d="M512 978.488889a28.444444 28.444444 0 0 1-28.444444-28.444445v-335.644444a28.444444 28.444444 0 0 1 56.888888 0v335.644444a28.444444 28.444444 0 0 1-28.444444 28.444445zM512 426.666667A28.444444 28.444444 0 0 1 483.555556 398.222222V56.888889a28.444444 28.444444 0 0 1 56.888888 0v341.333333a28.444444 28.444444 0 0 1-28.444444 28.444445z" fill="#000000" p-id="15268"></path><path d="M512 449.422222l-22.755556-11.377778-136.533333-176.355555a34.133333 34.133333 0 0 1 5.688889-39.822222 28.444444 28.444444 0 0 1 39.822222 5.688889l113.777778 147.911111L631.466667 227.555556a22.755556 22.755556 0 0 1 34.133333-5.688889 28.444444 28.444444 0 0 1 5.688889 39.822222L534.755556 438.044444z" fill="#000000" p-id="15269"></path></svg>