<?xml version="1.0" standalone="no"?><!DOCTYPE svg PUBLIC "-//W3C//DTD SVG 1.1//EN" "http://www.w3.org/Graphics/SVG/1.1/DTD/svg11.dtd"><svg t="1677403978565" class="icon" viewBox="0 0 1024 1024" version="1.1" xmlns="http://www.w3.org/2000/svg" p-id="18510" xmlns:xlink="http://www.w3.org/1999/xlink" width="600" height="600"><path d="M640 409.6h204.8c15.36 0 25.6-10.24 25.6-25.6s-10.24-25.6-25.6-25.6h-143.36l158.72-158.72c10.24-10.24 10.24-25.6 0-35.84s-25.6-10.24-35.84 0L665.6 322.56V179.2c0-15.36-10.24-25.6-25.6-25.6s-25.6 10.24-25.6 25.6v204.8c0 15.36 10.24 25.6 25.6 25.6zM384 614.4h-204.8c-15.36 0-25.6 10.24-25.6 25.6s10.24 25.6 25.6 25.6h143.36l-158.72 158.72c-10.24 10.24-10.24 25.6 0 35.84 10.24 10.24 25.6 10.24 35.84 0L358.4 701.44v143.36c0 15.36 10.24 25.6 25.6 25.6s25.6-10.24 25.6-25.6v-204.8c0-10.24-5.12-15.36-10.24-20.48-5.12-5.12-10.24-5.12-15.36-5.12zM384 153.6c-15.36 0-25.6 10.24-25.6 25.6v143.36L199.68 158.72c-10.24-5.12-30.72-5.12-40.96 0s-5.12 30.72 0 40.96L322.56 358.4H179.2c-15.36 0-25.6 10.24-25.6 25.6s10.24 25.6 25.6 25.6h204.8c15.36 0 25.6-10.24 25.6-25.6v-204.8c0-15.36-10.24-25.6-25.6-25.6zM870.4 640c0-15.36-10.24-25.6-25.6-25.6h-204.8c-15.36 0-25.6 10.24-25.6 25.6v204.8c0 15.36 10.24 25.6 25.6 25.6s25.6-10.24 25.6-25.6v-143.36l158.72 158.72c10.24 10.24 25.6 10.24 35.84 0 10.24-10.24 10.24-25.6 0-35.84L701.44 665.6h143.36c15.36 0 25.6-10.24 25.6-25.6z" p-id="18511" fill="#000000"></path></svg>