<?xml version="1.0" standalone="no"?><!DOCTYPE svg PUBLIC "-//W3C//DTD SVG 1.1//EN" "http://www.w3.org/Graphics/SVG/1.1/DTD/svg11.dtd"><svg t="1677403726057" class="icon" viewBox="0 0 1024 1024" version="1.1" xmlns="http://www.w3.org/2000/svg" p-id="16501" xmlns:xlink="http://www.w3.org/1999/xlink" width="600" height="600"><path d="M900.632381 847.530667a24.380952 24.380952 0 0 1 24.380952 24.380952v16.286476a24.380952 24.380952 0 0 1-24.380952 24.380953h-731.428571a24.380952 24.380952 0 0 1-24.380953-24.380953v-16.286476a24.380952 24.380952 0 0 1 24.380953-24.380952h731.428571zM525.214476 222.98819a7.265524 7.265524 0 0 1 11.459048 0l102.4 129.657905a7.363048 7.363048 0 0 1-5.753905 11.849143h-63.829333v272.286476h67.779047a7.314286 7.314286 0 0 1 5.802667 11.897905l-102.4 129.511619a7.265524 7.265524 0 0 1-11.50781 0l-102.4-129.511619a7.363048 7.363048 0 0 1 5.802667-11.897905h63.780572V364.495238H428.617143a7.314286 7.314286 0 0 1-5.753905-11.849143z m375.466667-133.510095a24.380952 24.380952 0 0 1 24.380952 24.380953v16.237714a24.380952 24.380952 0 0 1-24.380952 24.380952h-731.428572a24.380952 24.380952 0 0 1-24.380952-24.380952v-16.237714a24.380952 24.380952 0 0 1 24.380952-24.380953h731.428572z" fill="#000000" p-id="16502"></path></svg>