<?xml version="1.0" encoding="utf-8"?>
<!-- Generator: Adobe Illustrator 23.0.3, SVG Export Plug-In . SVG Version: 6.00 Build 0)  -->
<svg version="1.1" id="图层_1" xmlns="http://www.w3.org/2000/svg" xmlns:xlink="http://www.w3.org/1999/xlink" x="0px" y="0px"
	 viewBox="0 0 600 600" style="enable-background:new 0 0 600 600;" xml:space="preserve">
<path d="M477.6,330C465,405,405,465,330,477.6V420h-60v57.6C195,465,135,405,122.4,330H180v-60h-57.6C135,195,195,135,270,122.4V180
	h60v-57.6C405,135,465,195,477.6,270H420v60H477.6 M538.2,270C525,161.4,438.6,75,330,61.8V0h-60v61.8C161.4,75,75,161.4,61.8,270H0
	v60h61.8C75,438.6,161.4,525,270,538.2V600h60v-61.8C438.6,525,525,438.6,538.2,330H600v-60H538.2 M300,240c33,0,60,27,60,60
	s-27,60-60,60s-60-27-60-60S267,240,300,240L300,240z"/>
</svg>
